<mxfile host="Electron" agent="Mozilla/5.0 (Windows NT 10.0; Win64; x64) AppleWebKit/537.36 (KHTML, like Gecko) draw.io/28.0.6 Chrome/138.0.7204.100 Electron/37.2.3 Safari/537.36" version="28.0.6">
  <diagram name="Page-1" id="exXoeFtx5_OhVvFQexg1">
    <mxGraphModel dx="786" dy="516" grid="1" gridSize="10" guides="1" tooltips="1" connect="1" arrows="1" fold="1" page="1" pageScale="1" pageWidth="850" pageHeight="1100" math="0" shadow="0">
      <root>
        <mxCell id="0" />
        <mxCell id="1" parent="0" />
        <mxCell id="cGMDV3_gQnYAr7bf0Y0b-5" style="edgeStyle=orthogonalEdgeStyle;rounded=0;orthogonalLoop=1;jettySize=auto;html=1;exitX=0.5;exitY=1;exitDx=0;exitDy=0;" parent="1" source="cGMDV3_gQnYAr7bf0Y0b-1" target="cGMDV3_gQnYAr7bf0Y0b-4" edge="1">
          <mxGeometry relative="1" as="geometry" />
        </mxCell>
        <mxCell id="cGMDV3_gQnYAr7bf0Y0b-1" value="" style="rounded=1;whiteSpace=wrap;html=1;" parent="1" vertex="1">
          <mxGeometry x="150" y="60" width="120" height="60" as="geometry" />
        </mxCell>
        <mxCell id="cGMDV3_gQnYAr7bf0Y0b-6" style="edgeStyle=orthogonalEdgeStyle;rounded=0;orthogonalLoop=1;jettySize=auto;html=1;exitX=0.5;exitY=1;exitDx=0;exitDy=0;" parent="1" source="cGMDV3_gQnYAr7bf0Y0b-2" edge="1">
          <mxGeometry relative="1" as="geometry">
            <mxPoint x="420" y="210" as="targetPoint" />
          </mxGeometry>
        </mxCell>
        <mxCell id="cGMDV3_gQnYAr7bf0Y0b-2" value="" style="rounded=1;whiteSpace=wrap;html=1;" parent="1" vertex="1">
          <mxGeometry x="360" y="60" width="120" height="60" as="geometry" />
        </mxCell>
        <mxCell id="cGMDV3_gQnYAr7bf0Y0b-7" style="edgeStyle=orthogonalEdgeStyle;rounded=0;orthogonalLoop=1;jettySize=auto;html=1;exitX=0.5;exitY=1;exitDx=0;exitDy=0;" parent="1" source="cGMDV3_gQnYAr7bf0Y0b-3" edge="1">
          <mxGeometry relative="1" as="geometry">
            <mxPoint x="420" y="210" as="targetPoint" />
          </mxGeometry>
        </mxCell>
        <mxCell id="cGMDV3_gQnYAr7bf0Y0b-3" value="" style="rounded=1;whiteSpace=wrap;html=1;" parent="1" vertex="1">
          <mxGeometry x="570" y="60" width="120" height="60" as="geometry" />
        </mxCell>
        <mxCell id="cGMDV3_gQnYAr7bf0Y0b-17" style="edgeStyle=orthogonalEdgeStyle;rounded=0;orthogonalLoop=1;jettySize=auto;html=1;exitX=0.5;exitY=1;exitDx=0;exitDy=0;entryX=0.5;entryY=0;entryDx=0;entryDy=0;" parent="1" source="cGMDV3_gQnYAr7bf0Y0b-4" target="cGMDV3_gQnYAr7bf0Y0b-15" edge="1">
          <mxGeometry relative="1" as="geometry" />
        </mxCell>
        <mxCell id="cGMDV3_gQnYAr7bf0Y0b-19" style="edgeStyle=orthogonalEdgeStyle;rounded=0;orthogonalLoop=1;jettySize=auto;html=1;exitX=0.5;exitY=1;exitDx=0;exitDy=0;" parent="1" source="cGMDV3_gQnYAr7bf0Y0b-4" target="cGMDV3_gQnYAr7bf0Y0b-16" edge="1">
          <mxGeometry relative="1" as="geometry" />
        </mxCell>
        <mxCell id="mjt6s1PU1TbIBY5Y2hur-3" style="edgeStyle=orthogonalEdgeStyle;rounded=0;orthogonalLoop=1;jettySize=auto;html=1;exitX=0.5;exitY=1;exitDx=0;exitDy=0;entryX=0.5;entryY=0;entryDx=0;entryDy=0;" parent="1" source="cGMDV3_gQnYAr7bf0Y0b-4" target="mjt6s1PU1TbIBY5Y2hur-2" edge="1">
          <mxGeometry relative="1" as="geometry" />
        </mxCell>
        <mxCell id="cGMDV3_gQnYAr7bf0Y0b-4" value="" style="rounded=1;whiteSpace=wrap;html=1;" parent="1" vertex="1">
          <mxGeometry x="250" y="210" width="340" height="80" as="geometry" />
        </mxCell>
        <mxCell id="cGMDV3_gQnYAr7bf0Y0b-8" value="Real-time clock" style="text;html=1;align=center;verticalAlign=middle;whiteSpace=wrap;rounded=0;" parent="1" vertex="1">
          <mxGeometry x="180" y="75" width="60" height="30" as="geometry" />
        </mxCell>
        <mxCell id="cGMDV3_gQnYAr7bf0Y0b-9" value="Food level sensor" style="text;html=1;align=center;verticalAlign=middle;whiteSpace=wrap;rounded=0;" parent="1" vertex="1">
          <mxGeometry x="390" y="75" width="60" height="30" as="geometry" />
        </mxCell>
        <mxCell id="cGMDV3_gQnYAr7bf0Y0b-10" value="Weight sensor" style="text;html=1;align=center;verticalAlign=middle;whiteSpace=wrap;rounded=0;" parent="1" vertex="1">
          <mxGeometry x="600" y="75" width="60" height="30" as="geometry" />
        </mxCell>
        <mxCell id="cGMDV3_gQnYAr7bf0Y0b-12" value="Microcontroller/ Arduino Uno" style="text;html=1;align=center;verticalAlign=middle;whiteSpace=wrap;rounded=0;" parent="1" vertex="1">
          <mxGeometry x="390" y="235" width="60" height="30" as="geometry" />
        </mxCell>
        <mxCell id="cGMDV3_gQnYAr7bf0Y0b-15" value="" style="rounded=1;whiteSpace=wrap;html=1;" parent="1" vertex="1">
          <mxGeometry x="360" y="360" width="120" height="60" as="geometry" />
        </mxCell>
        <mxCell id="cGMDV3_gQnYAr7bf0Y0b-16" value="" style="rounded=1;whiteSpace=wrap;html=1;" parent="1" vertex="1">
          <mxGeometry x="540" y="360" width="120" height="60" as="geometry" />
        </mxCell>
        <mxCell id="cGMDV3_gQnYAr7bf0Y0b-20" value="Servo motor" style="text;html=1;align=center;verticalAlign=middle;whiteSpace=wrap;rounded=0;" parent="1" vertex="1">
          <mxGeometry x="390" y="375" width="60" height="30" as="geometry" />
        </mxCell>
        <mxCell id="cGMDV3_gQnYAr7bf0Y0b-21" value="Alert system&lt;div&gt;(Alerts the staff)&lt;/div&gt;" style="text;html=1;align=center;verticalAlign=middle;whiteSpace=wrap;rounded=0;" parent="1" vertex="1">
          <mxGeometry x="570" y="375" width="60" height="30" as="geometry" />
        </mxCell>
        <mxCell id="mjt6s1PU1TbIBY5Y2hur-2" value="Log / Display" style="rounded=1;whiteSpace=wrap;html=1;" parent="1" vertex="1">
          <mxGeometry x="190" y="360" width="120" height="60" as="geometry" />
        </mxCell>
      </root>
    </mxGraphModel>
  </diagram>
</mxfile>
